<svg width="25" height="24" viewBox="0 0 25 24" fill="none" xmlns="http://www.w3.org/2000/svg">
<path d="M7.25 3V5.25M17.75 3V5.25M3.5 18.75V7.5C3.5 6.25736 4.50736 5.25 5.75 5.25H19.25C20.4926 5.25 21.5 6.25736 21.5 7.5V18.75M3.5 18.75C3.5 19.9926 4.50736 21 5.75 21H19.25C20.4926 21 21.5 19.9926 21.5 18.75M3.5 18.75V11.25C3.5 10.0074 4.50736 9 5.75 9H19.25C20.4926 9 21.5 10.0074 21.5 11.25V18.75" stroke="#26A4FF" stroke-width="1.8" stroke-linecap="round" stroke-linejoin="round"/>
<path d="M10.5 12.8768C10.5 12.5906 10.8069 12.4092 11.0577 12.5471L14.9179 14.6703C15.1779 14.8132 15.1779 15.1868 14.9179 15.3297L11.0577 17.4529C10.8069 17.5908 10.5 17.4094 10.5 17.1232V12.8768Z" stroke="#26A4FF" stroke-width="1.5" stroke-linecap="round" stroke-linejoin="round"/>
</svg>
