<svg width="25" height="24" viewBox="0 0 25 24" fill="none" xmlns="http://www.w3.org/2000/svg">
<path d="M8.96777 8.39451L8.96552 8.39634L8.96338 8.39842L8.96777 8.39451ZM18.9219 8.20798C18.8523 8.14093 18.7751 8.08226 18.6919 8.03317C18.5741 7.96383 18.4433 7.9194 18.3076 7.90261C18.1719 7.88583 18.0343 7.89705 17.9031 7.93558C17.7719 7.97412 17.6501 8.03915 17.5451 8.12665C17.44 8.21415 17.3541 8.32227 17.2925 8.44431C16.948 9.123 16.4729 9.727 15.8945 10.2217C15.9829 9.72326 16.0275 9.21807 16.0278 8.71188C16.0296 7.17198 15.6234 5.65909 14.8504 4.32725C14.0775 2.9954 12.9654 1.89217 11.6274 1.12988C11.48 1.04633 11.3138 1.00159 11.1444 0.999869C10.9749 0.998144 10.8079 1.03949 10.6588 1.12003C10.5097 1.20056 10.3836 1.31765 10.2922 1.46029C10.2008 1.60294 10.1471 1.76648 10.1362 1.93555C10.0802 2.88373 9.83233 3.81067 9.40756 4.66022C8.98279 5.50977 8.38996 6.26424 7.665 6.87791L7.43453 7.06541C6.67644 7.5755 6.00543 8.20431 5.44723 8.92771C4.57955 10.0208 3.97848 11.3011 3.69169 12.6669C3.4049 14.0327 3.44028 15.4466 3.79503 16.7964C4.14977 18.1462 4.81412 19.3947 5.7354 20.4431C6.65667 21.4914 7.80953 22.3107 9.10254 22.8359C9.25436 22.898 9.41911 22.9217 9.58226 22.905C9.74542 22.8883 9.90195 22.8317 10.0381 22.7402C10.1742 22.6488 10.2857 22.5252 10.3628 22.3804C10.4398 22.2357 10.4801 22.0741 10.48 21.9101C10.4793 21.8041 10.4625 21.6987 10.4302 21.5976C10.2065 20.7567 10.142 19.8813 10.2403 19.0166C11.1865 20.8013 12.7054 22.216 14.5528 23.0332C14.7782 23.1341 15.0332 23.1476 15.2681 23.0713C16.7277 22.6002 18.0425 21.7637 19.0877 20.6413C20.133 19.5189 20.8738 18.1479 21.24 16.6586C21.6061 15.1692 21.5853 13.611 21.1796 12.1319C20.7739 10.6528 19.9967 9.30209 18.9219 8.20798ZM15.0171 21.039C14.1454 20.5973 13.3765 19.977 12.7602 19.2185C12.144 18.46 11.6943 17.5804 11.4404 16.6367C11.3629 16.319 11.3029 15.9972 11.2607 15.6728C11.2322 15.4663 11.1398 15.2738 10.9965 15.1224C10.8532 14.9709 10.6661 14.868 10.4614 14.8281C10.3984 14.8157 10.3343 14.8095 10.27 14.8096C10.0942 14.8095 9.92158 14.8558 9.76941 14.9437C9.61725 15.0317 9.49096 15.1582 9.4033 15.3106C8.57357 16.7417 8.1563 18.3746 8.19773 20.0283C7.46797 19.4609 6.85808 18.7543 6.40341 17.9495C5.94873 17.1447 5.65832 16.2576 5.549 15.3397C5.43968 14.4218 5.51363 13.4914 5.76655 12.6023C6.01948 11.7131 6.44636 10.8831 7.02244 10.1602C7.45985 9.592 7.98753 9.09945 8.58444 8.70216C8.61029 8.68548 8.63507 8.66722 8.65866 8.64747C8.65866 8.64747 8.95535 8.40199 8.96549 8.39637C10.3902 7.19134 11.4035 5.57189 11.8642 3.76368C12.9538 4.77092 13.6803 6.10971 13.931 7.57219C14.1816 9.03467 13.9424 10.539 13.2505 11.8516C13.159 12.0267 13.1215 12.225 13.1427 12.4215C13.1638 12.6179 13.2427 12.8037 13.3693 12.9554C13.4959 13.107 13.6646 13.2178 13.8541 13.2737C14.0436 13.3297 14.2454 13.3282 14.4341 13.2696C15.9658 12.7894 17.3138 11.8515 18.2964 10.5821C18.8869 11.4544 19.273 12.4487 19.4259 13.4909C19.5787 14.5332 19.4944 15.5965 19.1792 16.6016C18.864 17.6068 18.326 18.5278 17.6054 19.2961C16.8847 20.0644 16 20.6602 15.0171 21.0391L15.0171 21.039Z" fill="#26A4FF"/>
</svg>
