<svg width="21" height="20" viewBox="0 0 21 20" fill="none" xmlns="http://www.w3.org/2000/svg">
<g clip-path="url(#clip0_138_1217)">
<path fill-rule="evenodd" clip-rule="evenodd" d="M10.5 3.33335C6.81812 3.33335 3.83335 6.31812 3.83335 10C3.83335 13.6819 6.81812 16.6667 10.5 16.6667C14.1819 16.6667 17.1667 13.6819 17.1667 10C17.1667 6.31812 14.1819 3.33335 10.5 3.33335ZM2.16669 10C2.16669 5.39765 5.89765 1.66669 10.5 1.66669C15.1024 1.66669 18.8334 5.39765 18.8334 10C18.8334 14.6024 15.1024 18.3334 10.5 18.3334C5.89765 18.3334 2.16669 14.6024 2.16669 10Z" fill="#56CDAD"/>
<path fill-rule="evenodd" clip-rule="evenodd" d="M13.5893 7.74408C13.9147 8.06951 13.9147 8.59715 13.5893 8.92259L10.2559 12.2559C9.93051 12.5814 9.40287 12.5814 9.07743 12.2559L7.41076 10.5893C7.08533 10.2638 7.08533 9.73618 7.41076 9.41074C7.7362 9.08531 8.26384 9.08531 8.58928 9.41074L9.66669 10.4882L12.4108 7.74408C12.7362 7.41864 13.2638 7.41864 13.5893 7.74408Z" fill="#56CDAD"/>
</g>
<defs>
<clipPath id="clip0_138_1217">
<rect width="20" height="20" fill="white" transform="translate(0.5)"/>
</clipPath>
</defs>
</svg>
